<svg width="98" height="33" viewBox="0 0 98 33" fill="none" xmlns="http://www.w3.org/2000/svg">
<path d="M97.9713 18.2635L96.8736 2.97966C96.7663 1.48566 95.4721 0.364953 93.9781 0.472256L78.6943 1.56999C77.2003 1.67729 76.0796 2.97144 76.1869 4.46544C76.2942 5.95944 77.5883 7.08015 79.0823 6.97284L87.8438 6.34356L85.0314 9.59122C76.564 19.369 64.1145 27.7909 52.0913 26.2406C61.5528 18.7284 59.3781 8.87583 53.9148 4.14475C48.2693 -0.744143 39.6988 -0.128589 34.8099 5.51692C30.3413 10.6771 29.3516 19.6778 38.4088 26.3207C28.0443 27.9984 14.9948 24.1905 4.79107 15.3543C3.66074 14.3755 1.95072 14.4964 0.970106 15.6288C-0.0105109 16.7611 0.114208 18.4709 1.24454 19.4497C14.8454 31.2278 32.528 34.9737 45.2528 30.1154C61.149 36.2594 78.1645 25.7966 89.1268 13.1378L91.9392 9.8901L92.5685 18.6516C92.6758 20.1456 93.9699 21.2663 95.4639 21.159C96.9579 21.0517 98.0786 19.7575 97.9713 18.2635ZM38.9053 9.06346C41.8383 5.67656 46.9814 5.30717 50.3683 8.24016C54.8998 12.1644 54.5547 19.6055 45.2537 24.193C36.01 19.6854 35.2382 13.2981 38.9053 9.06346Z" fill="#FF014F"/>
</svg>
