<svg width="111" height="110" viewBox="0 0 111 110" fill="none" xmlns="http://www.w3.org/2000/svg">
<path d="M13.6582 1.03562C12.5512 1.77365 11.0751 1.95816 10.1526 2.8807C9.41455 3.43423 9.41455 4.54128 10.1526 5.0948C10.8906 5.46382 11.8132 5.0948 12.5512 4.91029C13.1047 4.72579 13.2892 4.35677 13.2892 3.80324C13.8428 3.43423 14.3963 3.06521 14.7653 2.51169C15.5033 1.77365 14.5808 0.297585 13.6582 1.03562Z" fill="white"/>
<path d="M6.27781 11.9217C5.17076 12.8443 4.06371 13.9513 3.14116 15.0584C2.21862 16.1654 1.11157 17.6415 1.11157 18.933C1.11157 19.6711 2.03411 20.0401 2.40313 19.4866C3.32567 18.564 3.51018 17.088 4.24822 15.9809C4.98625 14.6894 5.90879 13.7668 7.01584 12.6598C7.38486 12.1062 6.64682 11.5527 6.27781 11.9217Z" fill="white"/>
<path d="M1.84969 28.5273C1.48068 27.0512 1.29617 25.3907 1.29617 23.7301C1.29617 23.1766 0.373625 23.1766 0.373625 23.7301C0.373625 25.9442 -0.733425 30.3724 1.48068 31.8485C1.84969 32.2175 2.40322 31.6639 2.40322 31.2949C2.40322 30.3724 2.0342 29.4498 1.84969 28.5273Z" fill="white"/>
<path d="M12.1822 35.5389C9.23005 35.9079 6.64693 36.4614 3.87931 34.9853C3.51029 34.8008 3.32578 35.1699 3.6948 35.3544C6.46242 37.384 9.59907 38.3065 12.7357 36.6459C13.4737 36.2769 12.7357 35.3544 12.1822 35.5389Z" fill="white"/>
<path d="M25.4668 25.9444C23.9907 26.4979 22.8837 27.605 21.5921 28.5275C20.1161 29.6345 18.8245 30.7416 17.5329 32.0332C17.1639 32.4022 17.7174 33.1402 18.271 32.7712C19.378 31.6641 20.6696 30.9261 21.9611 30.0036C23.2527 29.081 24.9133 28.343 26.0203 27.2359C26.5738 26.6824 26.2048 25.5754 25.4668 25.9444Z" fill="white"/>
<path d="M37.8289 12.6595C34.5077 13.9511 31.3711 17.0877 28.9725 19.6709C28.6034 20.2244 29.157 20.7779 29.7105 20.4089C31.1866 19.1173 32.8471 17.8258 34.5077 16.7187C35.7993 15.7962 37.2753 15.0581 38.3824 13.9511C38.9359 13.2131 38.3824 12.475 37.8289 12.6595Z" fill="white"/>
<path d="M54.2501 5.83267C50.929 5.64816 47.6078 6.93972 44.6557 8.04677C44.1022 8.23128 44.2867 8.96931 44.8402 8.96931C47.9768 8.04677 51.1135 7.67775 54.2501 7.49324C55.1727 7.30873 55.1727 5.83267 54.2501 5.83267Z" fill="white"/>
<path d="M66.6121 11.9217C65.6895 10.8147 64.398 9.70762 63.2909 8.78507C62.3684 8.04704 61.2613 9.15409 61.9994 10.0766C62.9222 10.9992 63.8444 12.1062 64.767 13.2133C65.6898 14.3203 66.6121 15.9809 67.9036 16.9034C68.4572 17.2725 69.1952 16.7189 69.0107 15.9809C69.0107 14.5048 67.7191 13.0288 66.6121 11.9217Z" fill="white"/>
<path d="M70.1177 21.8851C70.1177 21.147 68.8265 21.147 68.8265 21.8851C68.642 23.7302 68.2729 25.3907 67.9036 27.2358C67.5346 28.8964 66.6121 30.557 66.6121 32.402C66.6121 33.3246 67.9036 33.6936 68.2729 32.7711C69.9335 29.6344 70.3022 25.2062 70.1177 21.8851Z" fill="white"/>
<path d="M62.184 40.5202C61.2612 41.8118 60.3389 43.1033 59.4161 44.3949C58.6783 45.6865 57.3868 46.978 57.202 48.4541C57.202 49.1921 57.94 49.3766 58.4935 49.1921C59.7851 48.6386 60.3386 46.978 60.8921 45.871C61.8147 44.3949 62.5527 42.7343 63.4753 41.2583C63.8446 40.3357 62.7375 39.7822 62.184 40.5202Z" fill="white"/>
<path d="M52.9585 53.9894C51.2979 55.4654 50.0064 56.9415 48.8993 58.6021C47.7923 60.2627 46.3162 62.6613 46.6852 64.6909C46.8697 65.6134 47.7923 65.7979 48.3458 65.0599C49.2684 63.7683 49.4529 61.9232 50.0064 60.4472C50.7444 58.2331 52.036 56.2035 53.512 54.3584C53.8811 54.1739 53.3275 53.6203 52.9585 53.9894Z" fill="white"/>
<path d="M42.4416 72.0711C40.781 73.5472 39.4895 75.2078 38.3824 77.2373C37.2754 79.2669 35.9838 81.8504 36.3528 84.0645C36.5373 84.8025 37.6444 84.8025 37.8289 84.249C38.9359 82.5881 38.9359 80.374 39.674 78.5289C40.412 76.4996 41.7036 74.4697 43.1796 72.6246C43.5486 72.2556 42.9951 71.5176 42.4416 72.0711Z" fill="white"/>
<path d="M42.257 100.301C40.9654 99.5629 39.8584 99.0094 38.9358 97.9023C38.0133 96.4263 37.6443 94.2122 37.6443 92.5516C37.6443 91.9978 36.7217 91.9978 36.7217 92.5516C36.3527 96.0573 37.0908 102.146 41.888 101.962C42.626 101.777 42.995 100.67 42.257 100.301Z" fill="white"/>
<path d="M61.815 106.759C59.7857 106.574 57.7558 106.943 55.7265 106.943C53.1431 106.759 50.7445 106.02 48.7149 104.544C48.3459 104.36 48.1614 104.914 48.3459 105.098C52.2206 108.05 57.5716 110.633 62.3688 108.604C63.2911 108.05 62.7375 106.759 61.815 106.759Z" fill="white"/>
<path d="M77.4981 94.2123C76.2066 94.9504 75.0995 96.0574 73.6234 96.9799C72.3319 97.718 70.8555 98.087 69.3798 98.2715C68.4569 98.456 68.4569 99.7476 69.3798 99.7476C72.7009 99.9321 76.9446 98.825 78.7897 95.6884C79.528 94.7658 78.4207 93.843 77.4981 94.2123Z" fill="white"/>
<path d="M85.063 83.1416C82.6644 85.5402 80.0815 88.1233 78.4207 91.0754C77.8671 91.9983 79.1587 92.5515 79.7122 91.8135C81.7418 89.2303 85.063 87.3853 86.5393 84.2486C86.7235 83.3264 85.801 82.4038 85.063 83.1416Z" fill="white"/>
<path d="M98.9014 83.3263C98.3479 82.2192 96.8718 81.4812 95.7648 80.9277C94.4732 80.3741 92.9971 80.1899 91.5211 80.1899C90.5985 80.1899 90.5985 81.4812 91.5211 81.4812C92.8126 81.4812 93.9197 81.8505 95.0267 82.404C95.9496 82.9576 96.6876 83.8801 97.6098 84.4333C98.3479 84.9866 99.2701 84.0643 98.9014 83.3263Z" fill="white"/>
<path d="M109.972 90.522C107.388 86.2783 105.728 81.481 103.514 77.0528C102.407 75.0232 99.4546 76.8683 100.377 78.8979C102.038 82.5878 103.514 86.4628 105.728 89.9684C104.067 90.1529 102.407 90.3374 100.562 90.522C99.8236 90.7065 98.5321 90.7065 97.9785 91.4448L97.7943 91.629C97.7943 91.629 97.6098 91.629 97.6098 91.8135C97.2408 92.1825 97.6098 92.9206 97.9788 92.9206C98.1633 93.1051 98.3482 93.1051 98.7169 93.1051C99.6397 93.2893 100.562 93.1051 101.669 93.1051C104.068 92.9206 106.282 92.7358 108.68 92.9206C109.787 93.1051 110.525 91.629 109.972 90.522Z" fill="white"/>
</svg>
